<?xml version="1.0" standalone="no"?>
<!DOCTYPE svg PUBLIC "-//W3C//DTD SVG 20010904//EN"
 "http://www.w3.org/TR/2001/REC-SVG-20010904/DTD/svg10.dtd">
<svg version="1.0" xmlns="http://www.w3.org/2000/svg"
 width="1609.000000pt" height="1609.000000pt" viewBox="0 0 1609.000000 1609.000000"
 preserveAspectRatio="xMidYMid meet">
<metadata>
Created by potrace 1.11, written by Peter Selinger 2001-2013
</metadata>
<g transform="translate(0.000000,1609.000000) scale(0.100000,-0.100000)"
fill="#000000" stroke="none">
<path d="M7010 16074 c-19 -8 -82 -35 -140 -61 -58 -25 -118 -51 -135 -58 -16
-7 -65 -29 -108 -49 -43 -20 -80 -36 -82 -36 -3 0 -821 -355 -902 -391 -44
-20 -94 -41 -103 -44 -3 -1 -21 -8 -40 -17 -19 -9 -138 -61 -265 -116 -126
-55 -246 -107 -265 -115 -66 -29 -135 -59 -170 -74 -19 -8 -53 -23 -75 -33
-22 -10 -68 -30 -102 -44 -35 -14 -89 -38 -120 -52 -105 -46 -118 -52 -156
-68 -20 -8 -40 -15 -42 -15 -3 -1 -28 -12 -55 -26 -27 -14 -71 -34 -97 -44
-27 -10 -73 -30 -103 -44 -30 -14 -83 -37 -117 -51 -35 -14 -86 -37 -115 -50
-29 -13 -98 -43 -153 -66 -55 -24 -122 -53 -150 -65 -27 -13 -84 -37 -125 -55
-41 -18 -93 -40 -115 -50 -22 -10 -84 -37 -137 -60 l-98 -42 0 -6278 c0 -5010
3 -6279 13 -6287 6 -5 68 -33 137 -63 69 -29 167 -73 218 -97 51 -24 95 -43
97 -43 3 0 34 -13 69 -30 36 -16 94 -41 128 -55 35 -15 81 -35 103 -45 95 -43
156 -70 161 -70 3 0 35 -14 71 -30 35 -17 66 -30 68 -30 3 0 33 -13 67 -29 35
-16 176 -77 313 -136 138 -59 273 -118 300 -130 28 -12 95 -41 150 -64 55 -24
107 -46 116 -51 9 -5 61 -27 115 -50 54 -23 117 -50 139 -60 22 -10 110 -48
195 -85 85 -37 183 -80 218 -96 35 -16 66 -29 68 -29 3 0 24 -9 47 -19 77 -35
1159 -504 1167 -506 3 0 15 -6 26 -13 25 -14 25 -14 234 193 l135 134 0 7685
0 7686 -170 170 c-93 93 -172 170 -175 170 -3 -1 -21 -8 -40 -16z"/>
<path d="M8856 15921 l-168 -168 0 -7686 0 -7685 170 -170 169 -170 229 100
c126 54 245 105 265 113 20 7 45 18 55 24 11 6 39 19 64 30 189 80 341 146
375 161 22 10 130 57 240 105 110 47 252 109 315 137 63 27 142 61 175 76 33
14 64 29 69 34 6 4 15 8 22 8 7 0 51 18 98 40 47 22 89 40 93 40 5 0 20 6 35
14 15 8 87 40 160 71 133 58 155 67 281 124 38 17 72 31 76 31 4 0 25 8 47 19
70 33 102 47 654 286 613 266 581 252 673 294 37 17 72 31 77 31 7 0 10 2113
10 6285 l0 6285 -27 11 c-30 11 -60 24 -138 59 -27 13 -70 31 -95 42 -25 11
-58 25 -75 33 -53 23 -268 116 -330 142 -33 14 -82 36 -110 48 -27 13 -115 51
-195 85 -80 34 -163 70 -185 80 -51 23 -408 178 -545 237 -58 25 -159 69 -225
98 -66 29 -253 110 -415 180 -162 70 -315 136 -340 147 -25 11 -81 36 -125 55
-44 19 -93 40 -110 48 -16 8 -50 22 -75 33 -25 11 -61 26 -80 35 -218 95 -938
407 -941 407 -2 0 -80 -76 -173 -169z"/>
</g>
</svg>
